#!OML:ASF H:\ManfredETheater\Project 1\Capture day 1\Session 1\subject.ASF
:FULLY-SPECIFIED
:DEGREES
108
root -5.22205 14.8947 9.5393 -16.2251 47.3367 -30.5737
lowerback 20.4423 -0.205192 10.774
upperback 2.83552 3.16565 8.2327
thorax -8.30142 1.43099 2.07059
lowerneck -19.92 1.08011 1.05893
upperneck 15.0356 2.55629 -6.90703
head 8.04805 0.574721 -2.16419
rclavicle -1.93815e-014 7.79236e-014
rhumerus -30.9639 14.3022 -83.7007
rradius 106.895
rwrist -15.6344
rhand -23.7284 12.5257
rfingers 7.12502
rthumb 2.73964 -17.4364
lclavicle -1.93815e-014 7.79236e-014
lhumerus -57.6558 -11.217 91.7463
lradius 90.5104
lwrist 9.29657
lhand -20.4014 -14.3286
lfingers 7.12502
lthumb 5.95233 15.5677
rfemur 4.37997 -6.0621 20.4514
rtibia 39.5063
rfoot -20.1306 -16.8858
rtoes -55.2657
lfemur -64.1803 8.47975 -25.6317
ltibia 70.6984
lfoot -9.65506 -11.8813
ltoes 21.3495
109
root -4.95462 14.9628 9.9234 -16.6441 48.382 -31.5787
lowerback 19.6195 -0.142303 10.6442
upperback 2.6614 3.11287 8.3122
thorax -8.06122 1.41931 2.24998
lowerneck -19.9725 0.74722 0.931924
upperneck 15.3366 2.03172 -6.29358
head 8.12336 0.373701 -2.00684
rclavicle -5.86415e-014 7.31528e-014
rhumerus -32.2353 13.5533 -82.7748
rradius 106.749
rwrist -15.804
rhand -23.64 12.4694
rfingers 7.12502
rthumb 2.82504 -17.4916
lclavicle -5.86415e-014 7.31528e-014
lhumerus -58.346 -11.8877 91.4497
lradius 91.5985
lwrist 10.1139
lhand -19.624 -14.3724
lfingers 7.12502
lthumb 6.70281 15.5016
rfemur 5.68228 -5.65684 21.5517
rtibia 38.8023
rfoot -17.5531 -15.5718
rtoes -55.1663
lfemur -63.008 7.96467 -25.8887
ltibia 69.5297
lfoot -9.68223 -11.1501
ltoes 24.7586
110
root -4.67371 15.0358 10.2989 -17.0886 49.3547 -32.5151
lowerback 18.9097 -0.117113 10.5156
upperback 2.48109 3.02993 8.37139
thorax -7.88621 1.38951 2.41284
lowerneck -20.0277 0.462141 0.825952
upperneck 15.6605 1.57318 -5.7203
head 8.21472 0.202456 -1.85827
rclavicle -9.57148e-014 -9.08446e-014
rhumerus -33.6858 12.6955 -81.9197
rradius 106.138
rwrist -15.8542
rhand -23.5483 12.2892
rfingers 7.12502
rthumb 2.91356 -17.6707
lclavicle -9.57148e-014 -9.08446e-014
lhumerus -58.8197 -12.3624 91.3064
lradius 92.6401
lwrist 10.708
lhand -19.005 -14.4234
lfingers 7.12502
lthumb 7.30033 15.4307
rfemur 6.58945 -5.36524 22.4435
rtibia 38.6246
rfoot -14.4179 -13.6309
rtoes -54.7078
lfemur -61.5672 7.46792 -26.0202
ltibia 68.7389
lfoot -10.2486 -10.0383
ltoes 28.1411
111
root -4.38146 15.1118 10.6646 -17.4352 50.258 -33.2976
lowerback 18.2879 -0.12135 10.3663
upperback 2.27832 2.91722 8.38931
thorax -7.78078 1.34119 2.54811
lowerneck -20.0756 0.228175 0.734669
upperneck 15.979 1.1867 -5.19357
head 8.30997 0.0633181 -1.71846
rclavicle -2.18663e-014 -6.81831e-014
rhumerus -35.2655 11.7641 -81.1367
rradius 105.058
rwrist -15.8029
rhand -23.4512 11.9961
rfingers 7.12502
rthumb 3.00737 -17.9624
lclavicle -2.18663e-014 -6.81831e-014
lhumerus -59.0617 -12.6118 91.2781
lradius 93.6618
lwrist 11.0388
lhand -18.6161 -14.4479
lfingers 7.12502
lthumb 7.67567 15.3928
rfemur 6.99505 -5.21297 23.0449
rtibia 39.0136
rfoot -10.4855 -10.7411
rtoes -53.1778
lfemur -59.9427 6.96359 -26.0789
ltibia 68.2582
lfoot -11.2633 -8.6422
ltoes 31.3966
112
root -4.08141 15.1889 11.0208 -17.6057 51.0985 -33.8795
lowerback 17.7174 -0.14451 10.1691
upperback 2.05468 2.77573 8.35965
thorax -7.72394 1.27623 2.66346
lowerneck -20.1005 0.0448749 0.659063
upperneck 16.2466 0.870932 -4.7199
head 8.38985 -0.0445641 -1.58933
rclavicle -4.18939e-014 -4.53229e-014
rhumerus -36.9141 10.7841 -80.4212
rradius 103.535
rwrist -15.6819
rhand -23.3615 11.62
rfingers 7.12502
rthumb 3.09399 -18.3373
lclavicle -4.18939e-014 -4.53229e-014
lhumerus -59.0488 -12.6386 91.3365
lradius 94.7029
lwrist 11.1545
lhand -18.4709 -14.4409
lfingers 7.12502
lthumb 7.81587 15.3946
rfemur 6.85111 -5.18369 23.3442
rtibia 39.975
rfoot -6.24931 -7.64052
rtoes -51.0442
lfemur -58.2148 6.44105 -26.0889
ltibia 67.9933
lfoot -12.5898 -7.12699
ltoes 34.3573
113
root -3.77736 15.2656 11.3678 -17.5472 51.9009 -34.2313
lowerback 17.1775 -0.187524 9.91421
upperback 1.81126 2.59786 8.27216
thorax -7.70284 1.19149 2.75479
lowerneck -20.0927 -0.0904747 0.593693
upperneck 16.4291 0.620857 -4.28797
head 8.43964 -0.122908 -1.46637
rclavicle -7.79733e-014 -3.13086e-014
rhumerus -38.5747 9.77735 -79.7706
rradius 101.617
rwrist -15.5386
rhand -23.2822 11.1955
rfingers 7.12502
rthumb 3.17053 -18.7607
lclavicle -7.79733e-014 -3.13086e-014
lhumerus -58.7639 -12.4552 91.4509
lradius 95.8028
lwrist 11.1607
lhand -18.5408 -14.388
lfingers 7.12502
lthumb 7.74839 15.45
rfemur 6.14833 -5.26724 23.3521
rtibia 41.4921
rfoot -2.08767 -4.54654
rtoes -48.2099
lfemur -56.4568 5.8697 -26.074
ltibia 67.8439
lfoot -14.1135 -5.66134
ltoes 36.806
114
root -3.47387 15.3416 11.7075 -17.2832 52.6813 -34.3722
lowerback 16.68 -0.246162 9.5877
upperback 1.55682 2.38862 8.13059
thorax -7.7148 1.09051 2.83275
lowerneck -20.0355 -0.186748 0.552081
upperneck 16.5 0.419786 -3.89471
head 8.44599 -0.178693 -1.35259
rclavicle 6.13251e-014 -5.22804e-014
rhumerus -40.2137 8.73991 -79.1891
rradius 99.3679
rwrist -15.3934
rhand -23.2442 10.757
rfingers 7.12502
rthumb 3.20725 -19.1986
lclavicle 6.13251e-014 -5.22804e-014
lhumerus -58.2096 -12.1227 91.614
lradius 97.0115
lwrist 11.2098
lhand -18.8074 -14.2572
lfingers 7.12502
lthumb 7.49102 15.5901
rfemur 4.94104 -5.42508 23.1453
rtibia 43.5076
rfoot 1.43279 -1.8659
rtoes -45.1601
lfemur -54.7169 5.26571 -26.0292
ltibia 67.7292
lfoot -15.7489 -4.37176
ltoes 38.3266
115
root -3.17472 15.4156 12.0402 -16.8344 53.4546 -34.3278
lowerback 16.2293 -0.323868 9.1983
upperback 1.30331 2.14597 7.94183
thorax -7.74903 0.973165 2.90061
lowerneck -19.9415 -0.250508 0.525803
upperneck 16.4512 0.260747 -3.53258
head 8.40755 -0.215709 -1.24514
rclavicle 2.01269e-014 -6.38099e-014
rhumerus -41.7871 7.68218 -78.6572
rradius 96.8612
rwrist -15.2849
rhand -23.2511 10.3398
rfingers 7.12502
rthumb 3.20064 -19.6159
lclavicle 2.01269e-014 -6.38099e-014
lhumerus -57.3713 -11.6806 91.8195
lradius 98.3499
lwrist 11.3916
lhand -19.1911 -14.0512
lfingers 7.12502
lthumb 7.12065 15.8091
rfemur 3.28016 -5.66034 22.7806
rtibia 45.9438
rfoot 3.84749 0.0953942
rtoes -42.6996
lfemur -53.0579 4.64077 -25.9618
ltibia 67.5969
lfoot -17.4115 -3.33617
ltoes 38.9818
